<svg width="120" height="120" viewBox="0 0 120 120" fill="none" xmlns="http://www.w3.org/2000/svg">
<mask id="path-1-outside-1_117_743" maskUnits="userSpaceOnUse" x="19" y="12" width="82" height="102" fill="black">
<rect fill="white" x="19" y="12" width="82" height="102"/>
<path fill-rule="evenodd" clip-rule="evenodd" d="M76.1266 22.25L65.3013 16L22 41L22 91L32.8253 97.25L54.476 109.75L97.7772 84.75L97.7772 34.75L76.1266 22.25Z"/>
</mask>
<path fill-rule="evenodd" clip-rule="evenodd" d="M76.1266 22.25L65.3013 16L22 41L22 91L32.8253 97.25L54.476 109.75L97.7772 84.75L97.7772 34.75L76.1266 22.25Z" fill="#3258C2"/>
<path d="M65.3013 16L66.8013 13.4019L65.3013 12.5359L63.8013 13.4019L65.3013 16ZM76.1266 22.25L77.6266 19.6519V19.6519L76.1266 22.25ZM22 41L20.5 38.4019L19 39.268L19 41H22ZM22 91H19L19 92.732L20.5 93.5981L22 91ZM32.8253 97.25L34.3253 94.6519V94.6519L32.8253 97.25ZM54.476 109.75L52.976 112.348L54.476 113.214L55.976 112.348L54.476 109.75ZM97.7772 84.75L99.2772 87.3481L100.777 86.482V84.75H97.7772ZM97.7772 34.75H100.777V33.018L99.2772 32.1519L97.7772 34.75ZM63.8013 18.5981L74.6266 24.8481L77.6266 19.6519L66.8013 13.4019L63.8013 18.5981ZM23.5 43.5981L66.8013 18.5981L63.8013 13.4019L20.5 38.4019L23.5 43.5981ZM19 41L19 91H25L25 41H19ZM20.5 93.5981L31.3253 99.8481L34.3253 94.6519L23.5 88.4019L20.5 93.5981ZM31.3253 99.8481L52.976 112.348L55.976 107.152L34.3253 94.6519L31.3253 99.8481ZM55.976 112.348L99.2772 87.3481L96.2772 82.1519L52.976 107.152L55.976 112.348ZM100.777 84.75L100.777 34.75H94.7772L94.7772 84.75H100.777ZM74.6266 24.8481L96.2772 37.3481L99.2772 32.1519L77.6266 19.6519L74.6266 24.8481Z" fill="#3258C2" mask="url(#path-1-outside-1_117_743)"/>
<path d="M22 41L32.8253 47.25L54.476 59.75L54.476 109.75L32.8253 97.25L22 91L22 41Z" fill="url(#paint0_linear_117_743)"/>
<rect width="50" height="50" transform="matrix(0.866025 -0.5 2.20305e-08 1 54.476 59.75)" fill="url(#paint1_linear_117_743)"/>
<path d="M65.3013 16L76.1266 22.25L97.7772 34.75L54.4759 59.75L32.8253 47.25L22 41L65.3013 16Z" fill="url(#paint2_linear_117_743)"/>
<path fill-rule="evenodd" clip-rule="evenodd" d="M26.866 50C26.3877 49.7238 26 49.9477 26 50.5V56.5C26 57.0523 26.3877 57.7238 26.866 58L27.7321 58.5L30.3301 60C30.8084 60.2761 31.1962 60.0523 31.1962 59.5L31.1962 53.5C31.1962 52.9477 30.8084 52.2761 30.3301 52L27.7321 50.5L26.866 50ZM26.866 69.5C26.3877 69.2238 26 69.4477 26 70V72C26 72.5523 26.3877 73.2238 26.866 73.5L49.3827 86.5C49.861 86.7761 50.2487 86.5523 50.2487 86V84C50.2487 83.4477 49.861 82.7761 49.3827 82.5L26.866 69.5ZM26.866 76.5C26.3877 76.2238 26 76.4477 26 77V79C26 79.5523 26.3877 80.2238 26.866 80.5L49.3827 93.5C49.861 93.7761 50.2487 93.5523 50.2487 93V91C50.2487 90.4477 49.861 89.7761 49.3827 89.5L26.866 76.5ZM26 84C26 83.4477 26.3877 83.2238 26.866 83.5L49.3827 96.5C49.861 96.7761 50.2487 97.4477 50.2487 98V100C50.2487 100.552 49.861 100.776 49.3827 100.5L26.866 87.5C26.3877 87.2238 26 86.5523 26 86V84Z" fill="#D6E0FF"/>
<defs>
<linearGradient id="paint0_linear_117_743" x1="27.2181" y1="93.9958" x2="17.9393" y2="45.7815" gradientUnits="userSpaceOnUse">
<stop stop-color="#618AFF"/>
<stop offset="1" stop-color="#3261E4"/>
</linearGradient>
<linearGradient id="paint1_linear_117_743" x1="35.3952" y1="-1.8024" x2="8.77916" y2="27.6215" gradientUnits="userSpaceOnUse">
<stop stop-color="#7394F3"/>
<stop offset="1" stop-color="#7D9EFC"/>
</linearGradient>
<linearGradient id="paint2_linear_117_743" x1="65.2564" y1="16.0037" x2="47.5322" y2="56.753" gradientUnits="userSpaceOnUse">
<stop stop-color="#88A7FF"/>
<stop offset="1" stop-color="#A3BBFF"/>
</linearGradient>
</defs>
</svg>
