<svg width="120" height="120" viewBox="0 0 120 120" fill="none" xmlns="http://www.w3.org/2000/svg">
<path d="M104.603 85.8662L103.853 86.2988L60.5518 111.299L59.8018 111.732L59.0518 111.299L15.75 86.2988L15 85.8662V31.1338L15.75 30.7012L59.0518 5.70117L59.8018 5.26758L60.5518 5.70117L103.853 30.7012L104.603 31.1338V85.8662Z" fill="#3258C2" stroke="#3258C2" stroke-width="3"/>
<path d="M16.5 60L59.8013 85L59.8013 110L16.5 85L16.5 60Z" fill="url(#paint0_linear_117_742)"/>
<path d="M59.8013 85L103.103 60L103.103 85L59.8013 110L59.8013 85Z" fill="url(#paint1_linear_117_742)"/>
<path d="M59.8013 35L103.103 60L59.8013 85L16.5 60L59.8013 35Z" fill="url(#paint2_linear_117_742)"/>
<path fill-rule="evenodd" clip-rule="evenodd" d="M25.1962 77.5C25.1962 79.1568 24.033 79.8284 22.5981 79C21.1632 78.1716 20 76.1568 20 74.5C20 72.8431 21.1632 72.1716 22.5981 73C24.033 73.8284 25.1962 75.8431 25.1962 77.5ZM32.1962 81.5C32.1962 83.1568 31.033 83.8284 29.5981 83C28.1632 82.1716 27 80.1568 27 78.5C27 76.8431 28.1632 76.1716 29.5981 77C31.033 77.8284 32.1962 79.8431 32.1962 81.5ZM39.232 84C38.2755 83.4477 37.5 83.8954 37.5 85C37.5 86.1045 38.2755 87.4477 39.232 88L53.9545 96.5C54.9111 97.0523 55.6865 96.6045 55.6865 95.5C55.6865 94.3954 54.9111 93.0523 53.9545 92.5L39.232 84Z" fill="#D6E0FF"/>
<path d="M16.5 32L59.8013 57L59.8013 82L16.5 57L16.5 32Z" fill="url(#paint3_linear_117_742)"/>
<path d="M59.8013 57L103.103 32L103.103 57L59.8013 82L59.8013 57Z" fill="url(#paint4_linear_117_742)"/>
<path d="M59.8013 7L103.103 32L59.8013 57L16.5 32L59.8013 7Z" fill="url(#paint5_linear_117_742)"/>
<path fill-rule="evenodd" clip-rule="evenodd" d="M25.1962 50.5C25.1962 52.1568 24.033 52.8284 22.5981 52C21.1632 51.1716 20 49.1568 20 47.5C20 45.8431 21.1632 45.1716 22.5981 46C24.033 46.8284 25.1962 48.8431 25.1962 50.5ZM32.1962 54.5C32.1962 56.1568 31.033 56.8284 29.5981 56C28.1632 55.1716 27 53.1568 27 51.5C27 49.8431 28.1632 49.1716 29.5981 50C31.033 50.8284 32.1962 52.8431 32.1962 54.5ZM39.232 56.5C38.2755 55.9477 37.5 56.3954 37.5 57.5C37.5 58.6045 38.2755 59.9477 39.232 60.5L53.9545 69C54.9111 69.5523 55.6865 69.1045 55.6865 68C55.6865 66.8954 54.9111 65.5523 53.9545 65L39.232 56.5Z" fill="#D6E0FF"/>
<defs>
<linearGradient id="paint0_linear_117_742" x1="23.4575" y1="89.0085" x2="30.1192" y2="65.9315" gradientUnits="userSpaceOnUse">
<stop stop-color="#618AFF"/>
<stop offset="1" stop-color="#3261E4"/>
</linearGradient>
<linearGradient id="paint1_linear_117_742" x1="90.4544" y1="66.4012" x2="91.9238" y2="93.0702" gradientUnits="userSpaceOnUse">
<stop stop-color="#7394F3"/>
<stop offset="1" stop-color="#7D9EFC"/>
</linearGradient>
<linearGradient id="paint2_linear_117_742" x1="59.75" y1="35" x2="59.75" y2="85" gradientUnits="userSpaceOnUse">
<stop stop-color="#5983F8"/>
<stop offset="1" stop-color="#3258C2"/>
</linearGradient>
<linearGradient id="paint3_linear_117_742" x1="23.4575" y1="61.0085" x2="30.1192" y2="37.9315" gradientUnits="userSpaceOnUse">
<stop stop-color="#618AFF"/>
<stop offset="1" stop-color="#3261E4"/>
</linearGradient>
<linearGradient id="paint4_linear_117_742" x1="90.4544" y1="38.4012" x2="91.9238" y2="65.0702" gradientUnits="userSpaceOnUse">
<stop stop-color="#7394F3"/>
<stop offset="1" stop-color="#7D9EFC"/>
</linearGradient>
<linearGradient id="paint5_linear_117_742" x1="59.75" y1="7" x2="40.5764" y2="48.0429" gradientUnits="userSpaceOnUse">
<stop stop-color="#88A7FF"/>
<stop offset="1" stop-color="#A3BBFF"/>
</linearGradient>
</defs>
</svg>
