<svg width="120" height="120" viewBox="0 0 120 120" fill="none" xmlns="http://www.w3.org/2000/svg">
<path d="M104.603 85.8662L103.853 86.2988L60.5518 111.299L59.8018 111.732L59.0518 111.299L15.75 86.2988L15 85.8662V59.1338L15.75 58.7012L59.0518 33.7012L59.8018 33.2676L60.5518 33.7012L103.853 58.7012L104.603 59.1338V85.8662Z" fill="#3258C2" stroke="#3258C2" stroke-width="3"/>
<path d="M16.5 60L59.8013 85L59.8013 110L16.5 85L16.5 60Z" fill="url(#paint0_linear_117_756)"/>
<path d="M59.8013 85L103.103 60L103.103 85L59.8013 110L59.8013 85Z" fill="url(#paint1_linear_117_756)"/>
<path d="M59.8407 35L103.142 60L59.8407 85L16.5394 60L59.8407 35Z" fill="url(#paint2_linear_117_756)"/>
<path fill-rule="evenodd" clip-rule="evenodd" d="M62.6851 45.6796C61.888 45.2194 60.5955 45.2194 59.7984 45.6796L55.4682 48.1796C54.6711 48.6399 54.6711 49.3861 55.4682 49.8463L64.1285 54.8463L59.7984 57.3463L54.0249 54.013C53.6035 53.7697 53.0191 53.6449 52.4249 53.6713L43.043 54.0879C42.915 54.0936 42.7907 54.106 42.6709 54.1245L41.0345 53.1796C40.2373 52.7194 38.9449 52.7194 38.1477 53.1796L32.3742 56.513C31.5771 56.9732 31.5771 57.7194 32.3742 58.1797L38.1477 61.513C38.9449 61.9732 40.2373 61.9732 41.0345 61.513L46.808 58.1796C47.6051 57.7194 47.6051 56.9732 46.808 56.513L46.4409 56.301L51.802 56.0629L56.9116 59.013L54.0249 60.6796L52.5815 59.8463C51.7843 59.3861 50.4919 59.3861 49.6947 59.8463L43.9212 63.1796C43.1241 63.6399 43.1241 64.3861 43.9212 64.8463L49.6947 68.1797C50.4919 68.6399 51.7843 68.6399 52.5815 68.1797L58.355 64.8463C59.1521 64.3861 59.1521 63.6399 58.355 63.1796L56.9116 62.3463L59.7984 60.6796L64.8913 63.6201L64.4895 66.7214L64.1285 66.513C63.3313 66.0527 62.0389 66.0527 61.2417 66.513L55.4682 69.8463C54.6711 70.3066 54.6711 71.0527 55.4682 71.513L61.2417 74.8463C62.0389 75.3066 63.3313 75.3066 64.1285 74.8463L69.902 71.513C70.6992 71.0527 70.6992 70.3066 69.902 69.8463L68.2655 68.9015C68.2979 68.8316 68.3194 68.759 68.3291 68.6842L69.0323 63.2568C69.0766 62.9146 68.8604 62.5783 68.4401 62.3356L62.6851 59.013L67.0152 56.513L75.6755 61.513C76.4727 61.9732 77.7651 61.9732 78.5623 61.513L82.8924 59.013C83.6895 58.5527 83.6895 57.8066 82.8924 57.3463L62.6851 45.6796ZM51.1381 62.3463L54.0249 64.013L51.1381 65.6796L48.2514 64.013L51.1381 62.3463ZM77.1189 59.013L78.5623 58.1796L61.2417 48.1796L59.7984 49.013L77.1189 59.013ZM36.7044 57.3463L39.5911 55.6796L42.4779 57.3463L39.5911 59.013L36.7044 57.3463ZM59.7984 70.6796L62.6851 69.013L65.5719 70.6796L62.6851 72.3463L59.7984 70.6796Z" fill="white"/>
<path d="M78.5623 58.1796L77.1189 59.013L59.7984 49.013L61.2417 48.1796L78.5623 58.1796Z" fill="white"/>
<path d="M39.5911 55.6796L36.7044 57.3463L39.5911 59.013L42.4779 57.3463L39.5911 55.6796Z" fill="white"/>
<path d="M51.1381 65.6796L54.0249 64.013L51.1381 62.3463L48.2514 64.013L51.1381 65.6796Z" fill="white"/>
<path d="M62.6851 69.013L59.7984 70.6796L62.6851 72.3463L65.5719 70.6796L62.6851 69.013Z" fill="white"/>
<defs>
<linearGradient id="paint0_linear_117_756" x1="23.4575" y1="89.0085" x2="30.1192" y2="65.9315" gradientUnits="userSpaceOnUse">
<stop stop-color="#618AFF"/>
<stop offset="1" stop-color="#3261E4"/>
</linearGradient>
<linearGradient id="paint1_linear_117_756" x1="90.4544" y1="66.4012" x2="91.9238" y2="93.0702" gradientUnits="userSpaceOnUse">
<stop stop-color="#7394F3"/>
<stop offset="1" stop-color="#7D9EFC"/>
</linearGradient>
<linearGradient id="paint2_linear_117_756" x1="59.7894" y1="35" x2="40.6159" y2="76.0429" gradientUnits="userSpaceOnUse">
<stop stop-color="#88A7FF"/>
<stop offset="1" stop-color="#A3BBFF"/>
</linearGradient>
</defs>
</svg>
